<svg width="616" height="188" viewBox="0 0 616 188" fill="none" xmlns="http://www.w3.org/2000/svg">
<rect x="0.5" y="19.5" width="27" height="27" rx="13.5" fill="white"/>
<rect x="0.5" y="19.5" width="27" height="27" rx="13.5" stroke="#E3E3E3"/>
<g clip-path="url(#clip0_304_18779)">
<g clip-path="url(#clip1_304_18779)">
<mask id="mask0_304_18779" style="mask-type:luminance" maskUnits="userSpaceOnUse" x="6" y="25" width="16" height="16">
<path d="M22 33C22 28.5817 18.4183 25 14 25C9.58172 25 6 28.5817 6 33C6 37.4183 9.58172 41 14 41C18.4183 41 22 37.4183 22 33Z" fill="white"/>
</mask>
<g mask="url(#mask0_304_18779)">
<path d="M14.2734 38.2324C14.0592 38.2324 13.8519 38.1481 13.6514 37.9795C13.4554 37.8063 13.3574 37.6263 13.3574 37.4395C13.3574 37.2298 13.4007 37.0339 13.4873 36.8516C13.5785 36.6647 13.6217 36.4574 13.6172 36.2295C13.6172 36.1475 13.5785 36.0677 13.501 35.9902C13.4281 35.9082 13.2913 35.7965 13.0908 35.6553C12.8949 35.514 12.6123 35.3044 12.2432 35.0264C11.8968 34.7712 11.7236 34.4727 11.7236 34.1309C11.7236 34.0033 11.751 33.8939 11.8057 33.8027C11.8604 33.707 11.915 33.6159 11.9697 33.5293C12.0244 33.4427 12.0518 33.3516 12.0518 33.2559C12.0518 33.1693 12.0085 33.085 11.9219 33.0029C11.8353 32.9209 11.7122 32.8092 11.5527 32.668L10.5547 31.7998C10.0762 31.3851 9.70703 30.9818 9.44727 30.5898C9.19206 30.1979 9.08496 29.8219 9.12598 29.4619C9.17611 29.1247 9.34473 28.7965 9.63184 28.4775C9.9235 28.154 10.2972 27.8623 10.7529 27.6025C11.2087 27.3382 11.7145 27.1286 12.2705 26.9736C12.8311 26.8187 13.403 26.7412 13.9863 26.7412C14.7793 26.7412 15.4902 26.862 16.1191 27.1035C16.748 27.3405 17.1901 27.6572 17.4453 28.0537C17.3314 28.2907 17.1673 28.514 16.9531 28.7236C16.7435 28.9287 16.5111 29.1178 16.2559 29.291C16.0007 29.4642 15.75 29.6169 15.5039 29.749C15.2624 29.8812 15.0527 29.9906 14.875 30.0771C14.9707 30.2275 15.0482 30.3643 15.1074 30.4873C15.1667 30.6103 15.1963 30.7288 15.1963 30.8428C15.1963 31.0615 15.137 31.2415 15.0186 31.3828C14.9046 31.5241 14.736 31.5947 14.5127 31.5947C14.335 31.5947 14.1595 31.5491 13.9863 31.458C13.8177 31.3623 13.6582 31.2689 13.5078 31.1777C13.3574 31.082 13.2275 31.0342 13.1182 31.0342C13.0225 31.0342 12.9382 31.0615 12.8652 31.1162C12.7969 31.1663 12.7627 31.2393 12.7627 31.335C12.7627 31.417 12.8083 31.5218 12.8994 31.6494C12.9951 31.7725 13.1113 31.8955 13.2481 32.0185C13.3893 32.137 13.5306 32.2373 13.6719 32.3193C13.8132 32.3968 13.9316 32.4355 14.0273 32.4355C14.1595 32.4355 14.3008 32.3968 14.4512 32.3193C14.6061 32.2373 14.7565 32.1575 14.9023 32.0801C15.0482 31.998 15.1781 31.957 15.292 31.957C15.4834 31.957 15.7067 32.0254 15.9619 32.1621C16.2171 32.2988 16.4655 32.472 16.707 32.6816C16.9486 32.8913 17.1468 33.1077 17.3018 33.331C17.4613 33.5498 17.541 33.7435 17.541 33.9121C17.541 34.1445 17.4567 34.4408 17.2881 34.8008C17.124 35.1608 16.9098 35.5391 16.6455 35.9355C16.3812 36.332 16.0986 36.7035 15.7979 37.0498C15.5016 37.3962 15.2168 37.681 14.9434 37.9043C14.6699 38.123 14.4466 38.2324 14.2734 38.2324ZM14 40.0371C13.0475 40.0371 12.1497 39.8548 11.3066 39.4902C10.4681 39.1257 9.72754 38.6221 9.08496 37.9795C8.44238 37.3369 7.9388 36.5964 7.57422 35.7578C7.20964 34.9147 7.02734 34.0169 7.02734 33.0644C7.02734 32.112 7.20964 31.2165 7.57422 30.3779C7.9388 29.5348 8.4401 28.792 9.07812 28.1494C9.7207 27.5068 10.4613 27.0033 11.2998 26.6387C12.1429 26.2741 13.0407 26.0918 13.9932 26.0918C14.9456 26.0918 15.8434 26.2741 16.6865 26.6387C17.5296 27.0033 18.2725 27.5068 18.915 28.1494C19.5576 28.792 20.0612 29.5348 20.4258 30.3779C20.7904 31.2165 20.9727 32.112 20.9727 33.0644C20.9727 34.0169 20.7904 34.9147 20.4258 35.7578C20.0612 36.5964 19.5576 37.3369 18.915 37.9795C18.2725 38.6221 17.5296 39.1257 16.6865 39.4902C15.848 39.8548 14.9525 40.0371 14 40.0371ZM14 39.1074C14.8249 39.1074 15.6019 38.9479 16.3311 38.6289C17.0602 38.3145 17.7028 37.8792 18.2588 37.3232C18.8148 36.7673 19.25 36.1247 19.5645 35.3955C19.8835 34.6663 20.043 33.8893 20.043 33.0644C20.043 32.2396 19.8835 31.4626 19.5645 30.7334C19.25 30.0042 18.8125 29.3616 18.252 28.8057C17.696 28.2497 17.0534 27.8144 16.3242 27.5C15.5951 27.181 14.818 27.0215 13.9932 27.0215C13.1683 27.0215 12.3913 27.181 11.6621 27.5C10.9329 27.8144 10.2904 28.2497 9.73438 28.8057C9.18294 29.3616 8.74772 30.0042 8.42871 30.7334C8.11426 31.4626 7.95703 32.2396 7.95703 33.0644C7.95703 33.8893 8.11426 34.6663 8.42871 35.3955C8.74772 36.1247 9.18522 36.7673 9.74121 37.3232C10.2972 37.8792 10.9398 38.3145 11.669 38.6289C12.3981 38.9479 13.1751 39.1074 14 39.1074Z" fill="#1D1D1F" fill-opacity="0.6"/>
</g>
</g>
</g>
<path d="M36 20C36 17.7909 37.7909 16 40 16H92C94.2091 16 96 17.7909 96 20V27C96 29.2091 94.2091 31 92 31H40C37.7909 31 36 29.2091 36 27V20Z" fill="#C7CDD2"/>
<path d="M36 39C36 36.7909 37.7909 35 40 35H255C257.209 35 259 36.7909 259 39V46C259 48.2091 257.209 50 255 50H40C37.7909 50 36 48.2091 36 46V39Z" fill="#C7CDD2"/>
<path d="M0 62C0 59.7909 1.79086 58 4 58H277C279.209 58 281 59.7909 281 62V78C281 80.2091 279.209 82 277 82H4.00001C1.79087 82 0 80.2091 0 78V62Z" fill="#2015C2"/>
<path d="M0 94C0 91.7909 1.79086 90 4 90H612C614.209 90 616 91.7909 616 94V108C616 110.209 614.209 112 612 112H4C1.79086 112 0 110.209 0 108V94Z" fill="#C7CDD2"/>
<path d="M0 124C0 121.791 1.79086 120 4 120H548C550.209 120 552 121.791 552 124V138C552 140.209 550.209 142 548 142H4C1.79086 142 0 140.209 0 138V124Z" fill="#C7CDD2"/>
<path d="M0 154C0 151.791 1.79086 150 4 150H200C202.209 150 204 151.791 204 154V168C204 170.209 202.209 172 200 172H4C1.79086 172 0 170.209 0 168V154Z" fill="#C7CDD2"/>
<defs>
<clipPath id="clip0_304_18779">
<rect width="16" height="16" fill="white" transform="translate(6 25)"/>
</clipPath>
<clipPath id="clip1_304_18779">
<rect width="16" height="16" fill="white" transform="translate(6 25)"/>
</clipPath>
</defs>
</svg>
