<svg width="16" height="16" viewBox="0 0 16 16" fill="none" xmlns="http://www.w3.org/2000/svg">
<path d="M10.34 2.59C9.61 2.51 8.82 2.47 8 2.47C7.17 2.47 6.39 2.51 5.66 2.59C4.31 2.74 3.19 3.76 2.71 5.14H13.29C12.81 3.76 11.68 2.73 10.34 2.59ZM5.51 1.12C6.24 1.05 7.06 1 8 1C8.93 1 9.76 1.04 10.49 1.12C13.05 1.4 15 3.77 15 6.6H1C1 3.77 2.95 1.4 5.51 1.12ZM9.08815 7.85265L9.46894 8.02301L9.47762 8.02716C9.75681 8.16094 10.0932 8.16094 10.3724 8.02716L10.3831 8.02203L10.7483 7.85437C11.4267 7.53149 12.2261 7.53188 12.9042 7.85553L13.523 8.14496C13.7613 8.25713 14.024 8.315 14.3 8.315H15V9.785H14.3C13.8164 9.785 13.3394 9.68302 12.898 9.47548L12.897 9.47504L12.2724 9.18286C11.9932 9.04908 11.6568 9.04906 11.3776 9.18284L11.3669 9.18797L11.0018 9.35563C10.3254 9.67755 9.52869 9.67812 8.85185 9.35734L8.47108 9.18699L8.4624 9.18284C8.18321 9.04906 7.84681 9.04906 7.56762 9.18284L7.56466 9.18426L7.17627 9.36822C6.50184 9.67733 5.7082 9.67728 5.03377 9.36816L5.02534 9.3643L4.65012 9.1865C4.3654 9.05735 4.02095 9.05784 3.73669 9.18796L3.11 9.47644C2.66919 9.68333 2.19291 9.785 1.71001 9.785H1.01001V8.315H1.71001C1.98602 8.315 2.24869 8.25713 2.48705 8.14496L2.49266 8.14232L3.12377 7.85184C3.7982 7.54272 4.59181 7.54272 5.26625 7.85184L5.27468 7.8557L5.6499 8.0335C5.93355 8.16217 6.27647 8.16217 6.56011 8.0335L6.9324 7.85717L6.93401 7.8564C7.61132 7.53245 8.40991 7.53121 9.08815 7.85265ZM13.53 12.27V13.33C13.53 13.44 13.44 13.53 13.33 13.53H2.67C2.56 13.53 2.47 13.44 2.47 13.33V12.27H13.53ZM15 10.8H1V13.33C1 14.25 1.75 15 2.67 15H13.33C14.25 15 15 14.25 15 13.33V10.8Z" fill="white"/>
</svg>
