<svg width="16" height="16" viewBox="0 0 16 16" fill="none" xmlns="http://www.w3.org/2000/svg">
<path d="M3.21375 2.40875C3.135 2.32125 3.02125 2.26875 2.9075 2.26875C2.67125 2.26875 2.4875 2.46125 2.4875 2.68875V3.625H1.21875V2.68875C1.21875 1.7525 1.97125 1 2.9075 1C3.38 1 3.835 1.20125 4.15875 1.55125L5.14083 2.62587C5.65019 1.7555 6.62531 1.20313 7.69883 1.28254C9.20076 1.39364 10.3289 2.69964 10.2174 4.20156C10.1419 5.2199 9.51601 6.06483 8.65288 6.46885L9.6548 7.56519L9.83076 7.4608L9.90614 7.43603C10.967 7.08749 12.2044 7.30924 13.0126 8.06765L13.0148 8.06972L14.4983 9.47338L13.5017 10.5266L12.0205 9.12504L12.0195 9.12414C11.7115 8.83581 11.22 8.68181 10.724 8.73514L11.5875 9.68C12.1213 10.2663 12.4188 11.0275 12.4188 11.8238V12.0237C13.015 12.2331 13.4424 12.801 13.4424 13.4688C13.4424 14.3145 12.7569 15 11.9112 15C11.0655 15 10.3799 14.3145 10.3799 13.4688C10.3799 12.9038 10.6859 12.4102 11.1413 12.1449V11.8325C11.1413 11.6939 11.1267 11.5574 11.0983 11.425H6.24105C6.03582 11.425 5.83683 11.401 5.64653 11.3556L5.0186 12.5301C5.21999 12.7894 5.33991 13.1151 5.33991 13.4688C5.33991 14.3144 4.65435 15 3.80866 15C2.96297 15 2.27741 14.3144 2.27741 13.4688C2.27741 12.727 2.80479 12.1085 3.50504 11.9676L4.28493 10.5088C3.85126 9.98823 3.62258 9.29424 3.71473 8.55706L4.33131 3.63293L3.21375 2.40875ZM7.56045 5.27349C8.19689 5.2429 8.72332 4.74277 8.77142 4.09429C8.82346 3.39263 8.29657 2.78071 7.59186 2.72859C6.91567 2.67857 6.32549 3.16187 6.23223 3.82011L7.56045 5.27349ZM5.74931 5.18622L5.30237 8.75551C5.23081 9.32883 5.67318 9.82504 6.24105 9.82504H9.9841L5.74931 5.18622Z" fill="#141414"/>
</svg>
