<svg width="16" height="16" viewBox="0 0 16 16" fill="none" xmlns="http://www.w3.org/2000/svg">
<g clip-path="url(#clip0_368_21501)">
<path d="M14.2 8C14.2 4.57583 11.4242 1.8 8 1.8C4.57583 1.8 1.8 4.57583 1.8 8C1.8 11.4242 4.57583 14.2 8 14.2C11.4242 14.2 14.2 11.4242 14.2 8ZM16 8C16 12.4183 12.4183 16 8 16C3.58172 16 0 12.4183 0 8C0 3.58172 3.58172 0 8 0C12.4183 0 16 3.58172 16 8ZM8 12C6.34315 12 5 11.1046 5 10H11C11 11.1046 9.65685 12 8 12ZM6 7.75C6 8.44036 5.44036 9 4.75 9C4.05964 9 3.5 8.44036 3.5 7.75C3.5 7.05964 4.05964 6.5 4.75 6.5C5.44036 6.5 6 7.05964 6 7.75ZM11.25 9C11.9404 9 12.5 8.44036 12.5 7.75C12.5 7.05964 11.9404 6.5 11.25 6.5C10.5596 6.5 10 7.05964 10 7.75C10 8.44036 10.5596 9 11.25 9Z" fill="#141414"/>
</g>
<defs>
<clipPath id="clip0_368_21501">
<rect width="16" height="16" fill="white"/>
</clipPath>
</defs>
</svg>
