<svg width="16" height="16" viewBox="0 0 16 16" fill="none" xmlns="http://www.w3.org/2000/svg">
<path d="M6.6919 3.85205L8.00057 5.4291L9.30872 3.85163C10.0387 2.97137 10.5343 2.58714 10.8717 2.40702C11.1637 2.25114 11.423 2.2 11.8295 2.2C12.4552 2.2 13.0616 2.45794 13.5436 2.98065C14.4494 3.96285 14.5416 5.54559 13.8204 6.65H11.9636L10.2662 4.18879L7.70537 8.00525L6.52476 6.65H2.18002C1.45789 5.54455 1.5508 3.96281 2.45686 2.98122C2.93932 2.45814 3.54475 2.2 4.17153 2.2C4.57599 2.2 4.82983 2.24826 5.11889 2.40121C5.45367 2.57836 5.95281 2.96138 6.6919 3.85205ZM3.70057 8.35H5.75111L7.88084 10.7948L10.2855 7.21112L11.0709 8.35H12.2998L8.00015 12.9969L3.70057 8.35ZM14.7933 8.15825C16.4022 6.41377 16.4022 3.57277 14.7933 1.82816C14.0035 0.97175 12.9503 0.5 11.8295 0.5C10.9598 0.5 10.1718 0.677163 9.18254 1.53093C8.82007 1.84375 8.43058 2.2474 8.00014 2.76646C7.56893 2.24681 7.17922 1.84337 6.81756 1.53105C5.81583 0.665988 5.02923 0.5 4.17153 0.5C3.04921 0.5 1.99757 0.97175 1.20767 1.82816C-0.402682 3.57277 -0.402681 6.41377 1.20841 8.15969L8.00014 15.5L14.7933 8.15825Z" fill="#141414"/>
</svg>
