<svg width="16" height="16" viewBox="0 0 16 16" fill="none" xmlns="http://www.w3.org/2000/svg">
<g clip-path="url(#clip0_368_21511)">
<path d="M2.37359 10.8374C4.07892 9.85546 6.01827 9.33333 7.99999 9.33333C9.98172 9.33333 11.9211 9.85546 13.6264 10.8374C14.0573 9.98466 14.3 9.02068 14.3 8C14.3 4.52061 11.4794 1.7 8 1.7C4.52061 1.7 1.7 4.52061 1.7 8C1.7 9.02067 1.94272 9.98466 2.37359 10.8374ZM16 8C16 9.85412 15.3692 11.5609 14.3106 12.9175C14.2656 12.9752 14.2198 13.0323 14.1732 13.0887C12.7059 14.8667 10.4853 16 8 16C7.72386 16 7.45098 15.986 7.18205 15.9587C4.60352 15.6968 2.38701 14.2104 1.12321 12.0902C1.06462 11.9919 1.00808 11.8922 0.953646 11.7913C0.345265 10.6629 0 9.37179 0 8C0 3.58172 3.58172 0 8 0C12.4183 0 16 3.58172 16 8ZM7.99999 14C9.61558 14 11.0836 13.3618 12.1638 12.3204C10.878 11.6745 9.45282 11.3333 7.99999 11.3333C6.54716 11.3333 5.12202 11.6745 3.83614 12.3204C4.91636 13.3618 6.3844 14 7.99999 14ZM8.8 6C8.8 5.55817 8.44183 5.2 8 5.2C7.55817 5.2 7.2 5.55817 7.2 6C7.2 6.44183 7.55817 6.8 8 6.8C8.44183 6.8 8.8 6.44183 8.8 6ZM10.5 6C10.5 7.38071 9.38071 8.5 8 8.5C6.61929 8.5 5.5 7.38071 5.5 6C5.5 4.61929 6.61929 3.5 8 3.5C9.38071 3.5 10.5 4.61929 10.5 6Z" fill="#141414"/>
</g>
<defs>
<clipPath id="clip0_368_21511">
<rect width="16" height="16" fill="white"/>
</clipPath>
</defs>
</svg>
