<svg width="14" height="14" viewBox="0 0 14 14" fill="none" xmlns="http://www.w3.org/2000/svg">
<g clip-path="url(#clip0_368_21568)">
<path d="M11.6667 0H2.33333C1.04467 0 0 1.04467 0 2.33333V11.6667C0 12.9553 1.04467 14 2.33333 14H11.6667C12.9553 14 14 12.9553 14 11.6667V2.33333C14 1.04467 12.9553 0 11.6667 0Z" fill="#D32323"/>
<mask id="mask0_368_21568" style="mask-type:alpha" maskUnits="userSpaceOnUse" x="2" y="2" width="10" height="10">
<path d="M11.2655 5.57776H8.29798L7.38119 2.62309C7.32774 2.4502 7.17374 2.33331 6.9998 2.33331C6.82628 2.33331 6.67228 2.4502 6.61883 2.62309L5.70162 5.57776H2.73405C2.56054 5.57776 2.40654 5.69465 2.35309 5.86754C2.29921 6.04042 2.35818 6.22976 2.4986 6.33687L4.89938 8.16265L3.98217 11.1173C3.92872 11.2902 3.98726 11.4795 4.12811 11.5862C4.26853 11.6933 4.45859 11.6933 4.59944 11.5862L6.9998 9.76042L9.40058 11.5862C9.471 11.64 9.55373 11.6666 9.63646 11.6666C9.71876 11.6666 9.80191 11.64 9.87191 11.5862C10.0123 11.4795 10.0713 11.2902 10.0174 11.1173L9.10064 8.16265L11.5014 6.33687C11.6418 6.22976 11.7008 6.04042 11.6469 5.86754C11.5935 5.69465 11.4395 5.57776 11.2655 5.57776Z" fill="white"/>
</mask>
<g mask="url(#mask0_368_21568)">
<path d="M11.2655 5.57776H8.29798L7.38119 2.62309C7.32774 2.4502 7.17374 2.33331 6.9998 2.33331C6.82628 2.33331 6.67228 2.4502 6.61883 2.62309L5.70162 5.57776H2.73405C2.56054 5.57776 2.40654 5.69465 2.35309 5.86754C2.29921 6.04042 2.35818 6.22976 2.4986 6.33687L4.89938 8.16265L3.98217 11.1173C3.92872 11.2902 3.98726 11.4795 4.12811 11.5862C4.26853 11.6933 4.45859 11.6933 4.59944 11.5862L6.9998 9.76042L9.40058 11.5862C9.471 11.64 9.55373 11.6666 9.63646 11.6666C9.71876 11.6666 9.80191 11.64 9.87191 11.5862C10.0123 11.4795 10.0713 11.2902 10.0174 11.1173L9.10064 8.16265L11.5014 6.33687C11.6418 6.22976 11.7008 6.04042 11.6469 5.86754C11.5935 5.69465 11.4395 5.57776 11.2655 5.57776Z" fill="white"/>
</g>
</g>
<defs>
<clipPath id="clip0_368_21568">
<rect width="14" height="14" fill="white"/>
</clipPath>
</defs>
</svg>
