<svg width="22" height="30" viewBox="0 0 22 30" fill="none" xmlns="http://www.w3.org/2000/svg">
<ellipse opacity="0.4" cx="11" cy="28" rx="4" ry="2" fill="#444444"/>
<path d="M11 25L10.7422 25.4277L11 25.584L11.2578 25.4277L11 25ZM11 25L11.2588 25.4277L11.2607 25.4268C11.2623 25.4258 11.2648 25.4245 11.2676 25.4229C11.2731 25.4195 11.2809 25.4144 11.291 25.4082C11.3113 25.3957 11.3409 25.3774 11.3789 25.3535C11.455 25.3056 11.5653 25.2348 11.7051 25.1426C11.9848 24.958 12.383 24.6866 12.8594 24.3359C13.8113 23.6352 15.0821 22.6147 16.3545 21.3389C18.8816 18.8048 21.5 15.1757 21.5 10.9736C21.4998 5.1858 16.7998 0.5 11 0.5C5.20022 0.5 0.500213 5.1858 0.5 10.9736C0.5 15.1757 3.11843 18.8048 5.64551 21.3389C6.91789 22.6147 8.18868 23.6352 9.14062 24.3359C9.61702 24.6866 10.0152 24.958 10.2949 25.1426C10.4347 25.2348 10.545 25.3056 10.6211 25.3535C10.6591 25.3774 10.6887 25.3957 10.709 25.4082C10.7191 25.4144 10.7269 25.4195 10.7324 25.4229C10.7352 25.4245 10.7377 25.4258 10.7393 25.4268L10.7412 25.4277L11 25Z" fill="#444444" stroke="white"/>
<path d="M14.75 12.75H13.7L15.5 15.75H12.125V18H9.875V15.75H6.5L8.3 12.75H7.25L11 6L14.75 12.75Z" fill="white"/>
</svg>
