<svg width="16" height="16" viewBox="0 0 16 16" fill="none" xmlns="http://www.w3.org/2000/svg">
<g clip-path="url(#clip0_368_16632)">
<path d="M14.3 8C14.3 4.52061 11.4794 1.7 8 1.7C4.52061 1.7 1.7 4.52061 1.7 8C1.7 11.4794 4.52061 14.3 8 14.3C11.4794 14.3 14.3 11.4794 14.3 8ZM16 8C16 12.4183 12.4183 16 8 16C3.58172 16 0 12.4183 0 8C0 3.58172 3.58172 0 8 0C12.4183 0 16 3.58172 16 8ZM7.15 4V9.85H11V8.15H8.85V4H7.15Z" fill="#141414"/>
</g>
<defs>
<clipPath id="clip0_368_16632">
<rect width="16" height="16" fill="white"/>
</clipPath>
</defs>
</svg>
