<svg width="16" height="16" viewBox="0 0 16 16" fill="none" xmlns="http://www.w3.org/2000/svg">
<path d="M14.05 1C11.5382 1 9.5 3.03817 9.5 5.55V11.3H13.25V15H14.85V1H14.05ZM13.25 2.70995V9.7H11.1V5.55C11.1 4.19905 12.01 3.059 13.25 2.70995ZM3.75 1.00001V4.58002H2.6V1.00001H1V7.50002C1 8.49185 1.80817 9.30002 2.8 9.30002H3.75V15H5.35V9.30002H6.3C7.29183 9.30002 8.1 8.49185 8.1 7.50002V1.00001H6.5V4.58002H5.35V1.00001H3.75ZM2.6 6.18002H6.5V7.50002C6.5 7.60819 6.40817 7.70002 6.3 7.70002H2.8C2.69183 7.70002 2.6 7.60819 2.6 7.50002V6.18002Z" fill="#141414"/>
</svg>
