<svg width="16" height="16" viewBox="0 0 16 16" fill="none" xmlns="http://www.w3.org/2000/svg">
<path d="M12.8 9.6C13.5789 8.56142 14 7.29822 14 6C14 2.68629 11.3137 0 8 0C4.68629 0 2 2.68629 2 6C2 7.29822 2.42107 8.56142 3.2 9.6L7.76923 15.6923C7.88462 15.8462 8.11539 15.8462 8.23077 15.6923L12.8 9.6ZM4.64 8.52C4.09475 7.793 3.8 6.90875 3.8 6C3.8 3.6804 5.6804 1.8 8 1.8C10.3196 1.8 12.2 3.6804 12.2 6C12.2 6.90875 11.9053 7.793 11.36 8.52L8 13L4.64 8.52ZM8 8C9.10457 8 10 7.10457 10 6C10 4.89543 9.10457 4 8 4C6.89543 4 6 4.89543 6 6C6 7.10457 6.89543 8 8 8Z" fill="#141414"/>
</svg>
