<svg width="16" height="16" viewBox="0 0 16 16" fill="none" xmlns="http://www.w3.org/2000/svg">
<path d="M2.78 12.67C4.07 14.1 5.93 15 8 15C10.07 15 11.93 14.1 13.22 12.67C14.32 11.43 15 9.79 15 8C15 6.21 14.33 4.58 13.22 3.33C11.94 1.9 10.08 1 8 1C5.92 1 4.06 1.9 2.78 3.33C1.67 4.57 1 6.21 1 8C1 9.79 1.68 11.43 2.78 12.67ZM11.4801 7.25C11.3944 5.63997 11.0357 4.19407 10.4989 3.09951C11.0986 3.40477 11.6428 3.82004 12.1 4.33C12.8329 5.15244 13.3005 6.16717 13.4489 7.25H11.4801ZM9.9785 7.25H6.0215C6.20135 4.16048 7.46202 2.5 8 2.5C8.53798 2.5 9.79865 4.16048 9.9785 7.25ZM6.0215 8.75H9.9785C9.79865 11.8395 8.53798 13.5 8 13.5C7.46202 13.5 6.20135 11.8395 6.0215 8.75ZM4.51985 7.25H2.55109C2.6995 6.16717 3.16714 5.15244 3.9 4.33C4.35611 3.82126 4.9007 3.40677 5.50002 3.10171C4.9638 4.196 4.60555 5.64105 4.51985 7.25ZM2.55109 8.75H4.51985C4.6056 10.36 4.96428 11.8059 5.5011 12.9005C4.90139 12.5952 4.35721 12.18 3.9 11.67C3.16714 10.8476 2.6995 9.83283 2.55109 8.75ZM11.4801 8.75H13.449C13.3008 9.83253 12.8347 10.8457 12.11 11.66C11.6481 12.1747 11.101 12.5926 10.4995 12.8993C11.036 11.8049 11.3944 10.3595 11.4801 8.75Z" fill="#141414"/>
</svg>
